<svg width="648" height="257" viewBox="0 0 648 257" fill="none" xmlns="http://www.w3.org/2000/svg">
<path d="M2.41469 250.653V212.983L90.4332 131.484C97.9189 124.24 104.197 117.72 109.268 111.925C114.42 106.129 118.324 100.454 120.98 94.9005C123.636 89.266 124.964 83.1888 124.964 76.6689C124.964 69.4246 123.314 63.1865 120.014 57.9545C116.714 52.642 112.206 48.5771 106.491 45.7598C100.776 42.8621 94.2968 41.4133 87.0525 41.4133C79.4862 41.4133 72.8858 42.9426 67.2513 46.0013C61.6169 49.06 57.2703 53.4469 54.2116 59.1618C51.1528 64.8768 49.6235 71.6784 49.6235 79.5667H-8.78572e-05C-8.78572e-05 63.3877 3.66232 49.3418 10.9871 37.4289C18.3119 25.516 28.5747 16.2996 41.7755 9.77973C54.9762 3.25984 70.1893 -9.799e-05 87.4147 -9.799e-05C105.123 -9.799e-05 120.537 3.13911 133.658 9.41752C146.858 15.6154 157.121 24.2281 164.446 35.2556C171.771 46.283 175.433 58.9204 175.433 73.1675C175.433 82.5046 173.582 91.721 169.879 100.817C166.257 109.912 159.777 120.014 150.44 131.122C141.103 142.15 127.943 155.391 110.959 170.845L74.8579 206.221V207.912H178.693V250.653H2.41469ZM313.528 256.087C292.761 256.006 274.892 250.895 259.92 240.753C245.029 230.611 233.559 215.921 225.509 196.683C217.541 177.445 213.597 154.304 213.677 127.258C213.677 100.293 217.661 77.3129 225.63 58.3167C233.679 39.3204 245.15 24.8721 260.041 14.9715C275.012 4.99044 292.841 -9.799e-05 313.528 -9.799e-05C334.215 -9.799e-05 352.003 4.99044 366.894 14.9715C381.866 24.9526 393.376 39.4412 401.426 58.4374C409.475 77.3531 413.459 100.293 413.379 127.258C413.379 154.384 409.354 177.566 401.305 196.804C393.336 216.042 381.906 230.731 367.015 240.873C352.124 251.016 334.295 256.087 313.528 256.087ZM313.528 212.741C327.695 212.741 339.004 205.618 347.456 191.371C355.907 177.123 360.093 155.753 360.012 127.258C360.012 108.504 358.081 92.8882 354.217 80.4118C350.434 67.9355 345.041 58.5581 338.038 52.2797C331.116 46.0013 322.946 42.8621 313.528 42.8621C299.442 42.8621 288.173 49.9052 279.721 63.9914C271.269 78.0776 267.003 99.1666 266.923 127.258C266.923 146.255 268.814 162.112 272.598 174.829C276.461 187.467 281.894 196.965 288.897 203.324C295.9 209.602 304.11 212.741 313.528 212.741ZM547.61 256.087C526.843 256.006 508.974 250.895 494.002 240.753C479.111 230.611 467.641 215.921 459.592 196.683C451.623 177.445 447.679 154.304 447.759 127.258C447.759 100.293 451.744 77.3129 459.712 58.3167C467.762 39.3204 479.232 24.8721 494.123 14.9715C509.094 4.99044 526.923 -9.799e-05 547.61 -9.799e-05C568.297 -9.799e-05 586.085 4.99044 600.976 14.9715C615.948 24.9526 627.458 39.4412 635.508 58.4374C643.557 77.3531 647.541 100.293 647.461 127.258C647.461 154.384 643.436 177.566 635.387 196.804C627.418 216.042 615.988 230.731 601.097 240.873C586.206 251.016 568.377 256.087 547.61 256.087ZM547.61 212.741C561.777 212.741 573.086 205.618 581.538 191.371C589.989 177.123 594.175 155.753 594.094 127.258C594.094 108.504 592.163 92.8882 588.299 80.4118C584.516 67.9355 579.123 58.5581 572.12 52.2797C565.198 46.0013 557.028 42.8621 547.61 42.8621C533.524 42.8621 522.255 49.9052 513.803 63.9914C505.351 78.0776 501.085 99.1666 501.005 127.258C501.005 146.255 502.896 162.112 506.68 174.829C510.543 187.467 515.976 196.965 522.979 203.324C529.982 209.602 538.192 212.741 547.61 212.741Z" fill="white"/>
</svg>
