<svg width="385" height="90" viewBox="0 0 385 90" fill="none" xmlns="http://www.w3.org/2000/svg">
<path d="M33.111 89.6591C26.7474 89.6591 21.0798 88.5654 16.1082 86.3779C11.165 84.162 7.25874 81.1222 4.38942 77.2586C1.54851 73.3665 0.0854439 68.8779 0.000216722 63.7926H18.5798C18.6934 65.9233 19.3894 67.7983 20.6678 69.4176C21.9746 71.0086 23.7076 72.2444 25.8667 73.125C28.0258 74.0057 30.4548 74.4461 33.1536 74.4461C35.9661 74.4461 38.4519 73.9489 40.611 72.9546C42.7701 71.9603 44.4604 70.5824 45.682 68.8211C46.9036 67.0597 47.5144 65.0284 47.5144 62.7273C47.5144 60.3978 46.861 58.3381 45.5542 56.5483C44.2758 54.7301 42.4292 53.3097 40.0144 52.287C37.6281 51.2642 34.7871 50.7529 31.4917 50.7529H23.3525V37.2017H31.4917C34.2758 37.2017 36.7332 36.7188 38.8639 35.7529C41.0229 34.787 42.6991 33.4517 43.8923 31.7472C45.0854 30.0142 45.682 27.9972 45.682 25.6961C45.682 23.5086 45.1565 21.5909 44.1053 19.9432C43.0826 18.2671 41.6337 16.9603 39.7587 16.0228C37.9122 15.0853 35.7531 14.6165 33.2815 14.6165C30.7815 14.6165 28.4945 15.0711 26.4207 15.9801C24.3468 16.8608 22.6849 18.125 21.4349 19.7728C20.1849 21.4205 19.5173 23.3523 19.432 25.5682H1.74738C1.8326 20.5398 3.26726 16.108 6.05135 12.2728C8.83544 8.43753 12.5854 5.44037 17.3014 3.28128C22.0457 1.09378 27.4008 3.00407e-05 33.3667 3.00407e-05C39.3894 3.00407e-05 44.6593 1.09378 49.1764 3.28128C53.6934 5.46878 57.2019 8.42333 59.7019 12.1449C62.2303 15.8381 63.4803 19.9858 63.4519 24.5881C63.4803 29.4745 61.9604 33.5512 58.8923 36.8182C55.8525 40.0853 51.8894 42.1591 47.0031 43.0398V43.7216C53.4235 44.5455 58.3099 46.7756 61.6622 50.412C65.0428 54.0199 66.719 58.537 66.6906 63.9631C66.719 68.9347 65.2843 73.3523 62.3866 77.2159C59.5173 81.0796 55.5542 84.1194 50.4974 86.3353C45.4406 88.5512 39.6451 89.6591 33.111 89.6591ZM113.448 89.6591C108.96 89.6307 104.627 88.8779 100.451 87.4006C96.3035 85.9233 92.5819 83.5228 89.2864 80.1989C85.991 76.875 83.3773 72.4716 81.4455 66.9887C79.5421 61.5057 78.5904 54.7728 78.5904 46.7898C78.6188 39.4603 79.4569 32.912 81.1046 27.1449C82.7808 21.3495 85.1671 16.4347 88.2637 12.4006C91.3887 8.36651 95.1245 5.29833 99.4711 3.19605C103.818 1.06537 108.69 3.00407e-05 114.088 3.00407e-05C119.911 3.00407e-05 125.053 1.13639 129.514 3.40912C133.974 5.65344 137.553 8.70742 140.252 12.5711C142.98 16.4347 144.627 20.7671 145.196 25.5682H127C126.289 22.5284 124.798 20.1421 122.525 18.4091C120.252 16.6762 117.44 15.8097 114.088 15.8097C108.406 15.8097 104.088 18.2813 101.133 23.2245C98.2069 28.1676 96.7154 34.8864 96.6586 43.3807H97.2552C98.562 40.7955 100.323 38.5938 102.539 36.7756C104.784 34.929 107.326 33.5228 110.167 32.5569C113.036 31.5625 116.062 31.0654 119.244 31.0654C124.414 31.0654 129.017 32.287 133.051 34.7301C137.085 37.1449 140.267 40.4688 142.596 44.7017C144.926 48.9347 146.09 53.7784 146.09 59.233C146.09 65.1421 144.713 70.3978 141.957 75C139.23 79.6023 135.409 83.2103 130.494 85.8239C125.607 88.4091 119.926 89.6875 113.448 89.6591ZM113.363 75.1705C116.204 75.1705 118.747 74.4887 120.991 73.125C123.235 71.7614 124.997 69.9148 126.275 67.5853C127.553 65.2557 128.193 62.6421 128.193 59.7444C128.193 56.8466 127.553 54.2472 126.275 51.9461C125.025 49.6449 123.292 47.8125 121.076 46.4489C118.86 45.0853 116.332 44.4034 113.491 44.4034C111.36 44.4034 109.386 44.8012 107.568 45.5966C105.778 46.3921 104.201 47.5 102.838 48.9205C101.502 50.3409 100.451 51.9887 99.6842 53.8637C98.9171 55.7103 98.5336 57.6847 98.5336 59.787C98.5336 62.5995 99.1728 65.1705 100.451 67.5C101.758 69.8296 103.519 71.6904 105.735 73.0824C107.98 74.4745 110.522 75.1705 113.363 75.1705ZM159.684 88.4659V1.19321H218.491V16.4063H178.136V37.2017H215.465V52.4148H178.136V73.2529H218.661V88.4659H159.684ZM250.462 1.19321L268.061 30.9375H268.743L286.428 1.19321H307.266L280.632 44.8296L307.862 88.4659H286.641L268.743 58.679H268.061L250.164 88.4659H229.027L256.343 44.8296L229.539 1.19321H250.462ZM318.942 88.4659V1.19321H353.374C359.993 1.19321 365.632 2.45742 370.291 4.98583C374.951 7.48583 378.502 10.9659 380.945 15.4262C383.416 19.858 384.652 24.9716 384.652 30.7671C384.652 36.5625 383.402 41.6762 380.902 46.108C378.402 50.5398 374.78 53.9915 370.036 56.4631C365.32 58.9347 359.61 60.1705 352.905 60.1705H330.959V45.3836H349.922C353.473 45.3836 356.399 44.7728 358.701 43.5512C361.03 42.3012 362.763 40.5824 363.899 38.3949C365.064 36.179 365.647 33.6364 365.647 30.7671C365.647 27.8693 365.064 25.3409 363.899 23.1818C362.763 20.9943 361.03 19.304 358.701 18.1108C356.371 16.8892 353.416 16.2784 349.837 16.2784H337.394V88.4659H318.942Z" fill="black"/>
</svg>
